<?xml version="1.0" encoding="utf-8"?>
<!-- Svg Vector Icons : http://www.onlinewebfonts.com/icon -->
<!DOCTYPE svg PUBLIC "-//W3C//DTD SVG 1.1//EN" "http://www.w3.org/Graphics/SVG/1.1/DTD/svg11.dtd">
<svg version="1.1" xmlns="http://www.w3.org/2000/svg" xmlns:xlink="http://www.w3.org/1999/xlink" x="0px" y="0px" viewBox="0 0 1000 1000" enable-background="new 0 0 1000 1000" xml:space="preserve">
<metadata> Svg Vector Icons : http://www.onlinewebfonts.com/icon </metadata>
<g><path d="M369.3,787.5L140.7,552.3c-13.1-13.1-13.1-32.7,0-45.7c13.1-13.1,32.7-13.1,45.7,0L375.9,696l392-392c13.1-13.1,32.7-13.1,45.7,0c13.1,13.1,13.1,32.7,0,45.7L369.3,787.5z"/><path d="M500,990C232.1,990,10,767.9,10,500C10,232.1,232.1,10,500,10c267.9,0,490,222.1,490,490C990,774.4,774.4,990,500,990z M500,81.9C271.3,81.9,81.9,271.3,81.9,500c0,228.7,189.5,418.1,418.1,418.1c228.7,0,418.1-189.5,418.1-418.1C918.1,271.3,735.2,81.9,500,81.9z"/></g>
</svg>