<?xml version="1.0" encoding="iso-8859-1"?>
<!-- Generator: Adobe Illustrator 18.0.0, SVG Export Plug-In . SVG Version: 6.00 Build 0)  -->
<!DOCTYPE svg PUBLIC "-//W3C//DTD SVG 1.1//EN" "http://www.w3.org/Graphics/SVG/1.1/DTD/svg11.dtd">
<svg version="1.1" id="Capa_1" xmlns="http://www.w3.org/2000/svg" xmlns:xlink="http://www.w3.org/1999/xlink" x="0px" y="0px"
	 viewBox="0 0 418.799 418.799" style="enable-background:new 0 0 418.799 418.799;" xml:space="preserve">
<g>
	<path d="M195.714,260.518c28.863-13.332,48.95-42.535,48.95-76.36c0-46.362-37.718-84.08-84.08-84.08s-84.08,37.718-84.08,84.08
		c0,33.825,20.087,63.028,48.95,76.36c-31.361,13.62-53.352,44.888-53.352,81.201v69.58c0,4.142,3.358,7.5,7.5,7.5h161.963
		c4.143,0,7.5-3.358,7.5-7.5v-69.58C249.065,305.406,227.075,274.138,195.714,260.518z M133.245,273.533l16.346,18.612
		l-20.85,15.551l-7.575-27.943C124.97,277.325,129.009,275.238,133.245,273.533z M160.584,268.237c3.83,0,7.593,0.297,11.267,0.865
		l-11.265,12.831l-11.269-12.831C152.991,268.534,156.753,268.237,160.584,268.237z M187.922,273.532
		c4.234,1.704,8.272,3.79,12.075,6.217l-7.574,27.944l-20.842-15.549L187.922,273.532z M91.504,184.158
		c0-38.091,30.989-69.08,69.08-69.08s69.08,30.989,69.08,69.08s-30.989,69.08-69.08,69.08S91.504,222.249,91.504,184.158z
		 M87.103,341.719c0-20.135,8.146-38.4,21.309-51.686l8.737,32.229c0.65,2.396,2.443,4.316,4.79,5.126
		c0.798,0.276,1.625,0.411,2.448,0.411c1.595,0,3.171-0.509,4.484-1.488l24.213-18.06v95.547H87.103V341.719z M234.065,403.799
		h-65.981V308.25l24.208,18.061c1.313,0.98,2.89,1.489,4.485,1.489c0.822,0,1.65-0.135,2.448-0.411
		c2.347-0.811,4.141-2.73,4.79-5.127l8.736-32.233c13.166,13.286,21.314,31.553,21.314,51.69V403.799z"/>
	<path d="M184.052,330.568c-5.853-3.999-13.62,2.143-11.223,8.757c1.047,2.889,3.794,4.889,6.872,4.968
		c3.204,0.082,6.16-1.955,7.245-4.968C188.092,336.14,186.889,332.436,184.052,330.568
		C183.642,330.288,184.462,330.838,184.052,330.568z"/>
	<path d="M131.122,164.458c-5.733,1.073-8.051,8.556-3.84,12.65c4.013,4.134,11.175,2.002,12.567-3.459
		C141.184,168.413,136.43,163.388,131.122,164.458C130.642,164.548,133.552,163.968,131.122,164.458z"/>
	<path d="M195.512,168.938c-1.833-4.344-7.358-6-11.242-3.262c-3.702,2.61-4.283,8.23-0.988,11.432
		c2.504,2.579,6.671,2.867,9.591,0.846C195.749,175.965,196.804,172.162,195.512,168.938
		C195.322,168.488,195.692,169.388,195.512,168.938z"/>
	<path d="M198.247,0c-4.142,0-7.5,3.358-7.5,7.5s3.358,7.5,7.5,7.5c73.584,0,133.45,59.865,133.45,133.449
		c0,4.142,3.357,7.5,7.5,7.5s7.5-3.358,7.5-7.5C346.696,66.594,280.102,0,198.247,0z"/>
	<path d="M198.247,39.593c-4.142,0-7.5,3.358-7.5,7.5s3.358,7.5,7.5,7.5c51.752,0,93.857,42.104,93.857,93.856
		c0,4.142,3.357,7.5,7.5,7.5s7.5-3.358,7.5-7.5C307.104,88.426,258.271,39.593,198.247,39.593z"/>
	<path d="M198.247,79.185c-4.142,0-7.5,3.358-7.5,7.5s3.358,7.5,7.5,7.5c29.921,0,54.264,24.343,54.264,54.264
		c0,4.142,3.357,7.5,7.5,7.5s7.5-3.358,7.5-7.5C267.511,110.257,236.438,79.185,198.247,79.185z"/>
</g>
<g>
</g>
<g>
</g>
<g>
</g>
<g>
</g>
<g>
</g>
<g>
</g>
<g>
</g>
<g>
</g>
<g>
</g>
<g>
</g>
<g>
</g>
<g>
</g>
<g>
</g>
<g>
</g>
<g>
</g>
</svg>
